<svg width="1600" height="900" viewBox="0 0 1600 900" fill="none" xmlns="http://www.w3.org/2000/svg">
<rect width="1600" height="900" fill="#05080A"/>
<rect width="1600" height="900" fill="url(#bg)"/>
<circle cx="1325" cy="162" r="270" fill="#00E2A0" fill-opacity="0.12"/>
<circle cx="186" cy="760" r="320" fill="#0C8F6B" fill-opacity="0.16"/>
<rect x="84" y="78" width="300" height="56" rx="28" fill="#0E1717" fill-opacity="0.85" stroke="#FFFFFF" stroke-opacity="0.08"/>
<text x="116" y="115" fill="#C7FFF1" font-family="Arial, Helvetica, sans-serif" font-size="28" font-weight="700" letter-spacing="4">VOITURES ELECTRIQUES</text>
<text x="84" y="236" fill="#F2FFFB" font-family="Arial, Helvetica, sans-serif" font-size="82" font-weight="800">Le luxe</text>
<text x="84" y="334" fill="#2CF8BD" font-family="Arial, Helvetica, sans-serif" font-size="100" font-weight="900">ELECTRIQUE</text>
<text x="84" y="421" fill="#F2FFFB" font-family="Arial, Helvetica, sans-serif" font-size="72" font-weight="700">au Maroc 2024</text>
<text x="88" y="503" fill="#B8C9C6" font-family="Arial, Helvetica, sans-serif" font-size="31">Etat des lieux, autonomie, infrastructures de recharge et avenir premium au royaume.</text>
<path d="M976 536H1462C1485 536 1504 555 1504 578V729H976V536Z" fill="#0B1315"/>
<rect x="1020" y="589" width="388" height="90" rx="22" fill="#091012" stroke="#2CF8BD" stroke-opacity="0.28" stroke-width="2"/>
<rect x="1408" y="615" width="28" height="38" rx="10" fill="#2CF8BD"/>
<rect x="1052" y="621" width="264" height="26" rx="13" fill="#1FE5AE" fill-opacity="0.15"/>
<rect x="1052" y="621" width="198" height="26" rx="13" fill="#1FE5AE"/>
<text x="1052" y="576" fill="#E7FFF8" font-family="Arial, Helvetica, sans-serif" font-size="28" font-weight="700">Autonomie premium</text>
<text x="1053" y="778" fill="#2CF8BD" font-family="Arial, Helvetica, sans-serif" font-size="92" font-weight="900">480 km</text>
<text x="1289" y="777" fill="#FFFFFF" fill-opacity="0.86" font-family="Arial, Helvetica, sans-serif" font-size="34" font-weight="700">selon modele</text>
<path d="M1362 438L1324 507H1364L1338 580L1434 478H1380L1408 438H1362Z" fill="#2CF8BD"/>
<text x="84" y="792" fill="#FFFFFF" fill-opacity="0.9" font-family="Arial, Helvetica, sans-serif" font-size="28" font-weight="700">FADLO CAR FUTURE MOBILITY</text>
<defs>
<linearGradient id="bg" x1="120" y1="85" x2="1469" y2="837" gradientUnits="userSpaceOnUse">
<stop stop-color="#101719"/>
<stop offset="0.52" stop-color="#0A1013"/>
<stop offset="1" stop-color="#05080A"/>
</linearGradient>
</defs>
</svg>
